<?xml version="1.0" encoding="UTF-8"?> <svg xmlns="http://www.w3.org/2000/svg" viewBox="0 0 164 26" width="164px" height="26px"><defs><style> .a { fill: #fff; } </style></defs><title>SNL Logo</title><g><path class="a" d="M144.69,14.7c0,.26,0,.51,0,.73,0,.5,0,.83,0,1.34,0,.69-.23,1.15-1,1.16s-1-.46-1-1.15c0-1,0-1.9,0-3s.56-1.26.91-1.26c.6,0,1.08.09,1.09,1.22,0,.32,0,.66,0,1l1.51,0a10.83,10.83,0,0,0-.08-1.38,2.21,2.21,0,0,0-2.53-1.82,2.07,2.07,0,0,0-2.34,1.89,19.8,19.8,0,0,0,0,3.93,2.13,2.13,0,0,0,2.4,1.67c1.5,0,2.31-.75,2.42-1.8.05-.5.09-1.11.09-1.84,0-.22,0-.44,0-.66Z"></path><path class="a" d="M126.68,14.7c0,.26,0,.51,0,.73,0,.5,0,.83,0,1.34,0,.69-.23,1.15-1,1.16s-1-.46-1-1.15c0-1,0-1.9,0-3s.56-1.26.91-1.26c.6,0,1.08.09,1.09,1.22,0,.32,0,.66,0,1l1.51,0a11.1,11.1,0,0,0-.08-1.38,2.21,2.21,0,0,0-2.53-1.82,2.07,2.07,0,0,0-2.34,1.89,19.65,19.65,0,0,0,0,3.93,2.13,2.13,0,0,0,2.4,1.67c1.5,0,2.31-.75,2.42-1.8.05-.5.09-1.11.09-1.84,0-.22,0-.44,0-.66Z"></path><g><path class="a" d="M137,15.65c0-.69,0-1.4,0-2a2.07,2.07,0,0,0-2.34-2.25c-1.7,0-2.44.8-2.37,2.23h1.49c0-.65-.06-1.24.83-1.24s.85.59.9,1.23a2.22,2.22,0,0,1,0,.64,9,9,0,0,0-2,.29,1.9,1.9,0,0,0-1.37,2.07c0,1.13.23,2.22,1.74,2.32a2,2,0,0,0,1.6-.72s.08,0,.16.59H137s-.06-1.37-.06-2.78l-1.49,0c0,.15,0,.3,0,.43-.06.54-.23,1.3-1.12,1.3s-.83-.92-.73-1.62.83-.84,1.87-.89c0,0,0,.15,0,.36"></path><path class="a" d="M137,15.65c0,.13,0,.27,0,.4l-1.49,0c0-.15,0-.29,0-.42"></path></g><g><path class="a" d="M116.56,15.65c0-.69,0-1.4,0-2a2.07,2.07,0,0,0-2.34-2.25c-1.7,0-2.44.8-2.37,2.23h1.49c0-.65-.06-1.24.83-1.24s.86.59.9,1.23a2.22,2.22,0,0,1,0,.64,9,9,0,0,0-2,.29,1.9,1.9,0,0,0-1.37,2.07c0,1.13.23,2.22,1.74,2.32a2,2,0,0,0,1.6-.72s.08,0,.16.59h1.44s-.06-1.37-.06-2.78l-1.49,0c0,.15,0,.3,0,.43-.06.54-.23,1.3-1.12,1.3s-.83-.92-.73-1.62.83-.84,1.87-.89c0,0,0,.15,0,.36"></path><path class="a" d="M116.56,15.65c0,.13,0,.27,0,.4l-1.49,0c0-.15,0-.29,0-.42"></path></g><g><path class="a" d="M100.46,15.65c0-.69,0-1.4,0-2a2.07,2.07,0,0,0-2.34-2.25c-1.7,0-2.44.8-2.37,2.23h1.49c0-.65-.06-1.24.83-1.24s.85.59.9,1.23a2.21,2.21,0,0,1,0,.64,9,9,0,0,0-2,.29,1.9,1.9,0,0,0-1.37,2.07c0,1.13.23,2.22,1.74,2.32a2,2,0,0,0,1.6-.72s.08,0,.16.59h1.44s-.06-1.37-.06-2.78l-1.49,0c0,.15,0,.3,0,.43-.06.54-.23,1.3-1.12,1.3s-.83-.92-.73-1.62.83-.84,1.87-.89c0,0,0,.15,0,.36"></path><path class="a" d="M100.46,15.65c0,.13,0,.27,0,.4l-1.49,0c0-.15,0-.29,0-.42"></path></g><g><path class="a" d="M77.78,15.65c0-.69,0-1.4,0-2a2.07,2.07,0,0,0-2.34-2.25c-1.7,0-2.44.8-2.37,2.23h1.49c0-.65-.06-1.24.83-1.24s.86.59.9,1.23a2.19,2.19,0,0,1,0,.64,9,9,0,0,0-2,.29,1.9,1.9,0,0,0-1.37,2.07c0,1.13.23,2.22,1.74,2.32a2,2,0,0,0,1.6-.72s.08,0,.16.59h1.44s-.06-1.37-.06-2.78l-1.49,0c0,.15,0,.3,0,.43-.06.54-.23,1.3-1.12,1.3s-.83-.92-.73-1.62.83-.84,1.87-.89c0,0,0,.15,0,.36"></path><path class="a" d="M77.78,15.65c0,.13,0,.27,0,.4l-1.49,0c0-.15,0-.29,0-.42"></path></g><g><path class="a" d="M61.3,15.65c0-.69,0-1.4,0-2a2.07,2.07,0,0,0-2.34-2.25c-1.7,0-2.44.8-2.37,2.23h1.49c0-.65-.06-1.24.83-1.24s.85.59.9,1.23a2.21,2.21,0,0,1,0,.64,9,9,0,0,0-2,.29,1.9,1.9,0,0,0-1.36,2.07c0,1.13.23,2.22,1.74,2.32a2,2,0,0,0,1.6-.72s.08,0,.16.59h1.44s-.06-1.37-.06-2.78l-1.49,0c0,.15,0,.3,0,.43-.06.54-.23,1.3-1.12,1.3s-.83-.92-.73-1.62.83-.84,1.87-.89c0,0,0,.15,0,.36"></path><path class="a" d="M61.3,15.65c0,.13,0,.27,0,.4l-1.49,0c0-.15,0-.29,0-.42"></path></g><path class="a" d="M87.87,14.7c0,.26,0,.51,0,.73,0,.5,0,.83,0,1.34,0,.69-.23,1.15-1,1.16s-1-.46-1-1.15c0-1,0-1.9,0-3s.56-1.26.91-1.26c.6,0,1.08.09,1.09,1.22,0,.32,0,.66,0,1l1.51,0a11,11,0,0,0-.08-1.38,2.21,2.21,0,0,0-2.53-1.82,2.07,2.07,0,0,0-2.34,1.89,19.74,19.74,0,0,0,0,3.93A2.13,2.13,0,0,0,86.87,19c1.5,0,2.31-.75,2.42-1.8.05-.5.09-1.11.09-1.84,0-.22,0-.44,0-.66Z"></path><rect class="a" x="150.3" y="11.52" width="1.51" height="7.31"></rect><rect class="a" x="54.3" y="11.52" width="1.51" height="7.31"></rect><g><path class="a" d="M41.84,15.65c0-.69,0-1.4,0-2a2.07,2.07,0,0,0-2.34-2.25c-1.7,0-2.44.8-2.37,2.23H38.6c0-.65-.06-1.24.83-1.24s.85.59.9,1.23a2.21,2.21,0,0,1,0,.64,9,9,0,0,0-2,.29A1.9,1.9,0,0,0,37,16.64c0,1.13.23,2.22,1.74,2.32a2,2,0,0,0,1.6-.72s.08,0,.16.59h1.44s-.06-1.37-.06-2.78l-1.49,0c0,.15,0,.3,0,.43-.06.54-.23,1.3-1.12,1.3s-.83-.92-.73-1.62.83-.84,1.87-.89c0,0,0,.15,0,.36"></path><path class="a" d="M41.84,15.65c0,.13,0,.27,0,.4l-1.49,0c0-.15,0-.29,0-.42"></path></g><path class="a" d="M44.1,11.52H42.59a11.36,11.36,0,0,1,.1,1.74v5.57h1.53V13.4c0-.51.2-1,.9-1a.9.9,0,0,1,.92,1v5.47h1.53V13.52c0-1.53-.73-2.13-1.91-2.13a2,2,0,0,0-1.52.6A1.48,1.48,0,0,1,44.1,11.52Z"></path><path class="a" d="M51.83,15V13.41a.94.94,0,0,0-1-1c-.87,0-1,.59-1,2.63,0,1.57-.09,2.86,1,2.86s1-1,1-1.87V15l1.52,0c0,.44,0,.86,0,1.08,0,1.43.08,2.78.08,2.78H52a2.33,2.33,0,0,0-.11-.65,1.91,1.91,0,0,1-1.43.67c-1.94,0-2-1.63-2-2.24a33.78,33.78,0,0,1,0-3.5,1.92,1.92,0,0,1,1.93-1.75,2.47,2.47,0,0,1,1.52.52V8.83h1.49c0,.81,0,4.23,0,6.15Z"></path><polygon class="a" points="68.33 8.82 65.84 8.82 65.84 18.84 67.38 18.84 67.38 10.82 69.61 18.84 72.13 18.84 72.13 8.82 70.6 8.82 70.6 16.7 68.33 8.82"></polygon><path class="a" d="M80.39,12.57h1.1v-1h-1.1V9.63l-1.45.59v1.3H78v1h.94V17.3c0,.59,0,1.53,1.64,1.53h1v-1h-.66c-.24,0-.48-.08-.48-.8Z"></path><rect class="a" x="82.05" y="11.52" width="1.51" height="7.31"></rect><rect class="a" x="82.05" y="8.81" width="1.51" height="1.48"></rect><path class="a" d="M91.49,11.52H90a11.3,11.3,0,0,1,.1,1.74v5.58h1.53V13.4c0-.51.2-1,.9-1a.9.9,0,0,1,.92,1v5.47H95V13.52c0-1.53-.73-2.13-1.91-2.13a2,2,0,0,0-1.52.6S91.52,12,91.49,11.52Z"></path><rect class="a" x="101.44" y="8.82" width="1.59" height="10.02"></rect><polygon class="a" points="107.59 18.84 111.29 18.84 111.29 17.61 109.22 17.61 109.22 8.82 107.59 8.82 107.59 18.84"></polygon><path class="a" d="M121,16.11c0-.31,0-.65,0-1,0-2-.07-2.65-.94-2.65a1,1,0,0,0-1,1v2.85c0,.38-.08,1.61,1,1.61.89,0,1-.76.94-1.83l1.47,0c0,.27,0,.49,0,.63-.08.67-.17,2.21-2,2.21a2,2,0,0,1-1.46-.67,2.13,2.13,0,0,0-.11.58h-1.48a9.41,9.41,0,0,0,.13-1.79V8.82h1.49V12a2.43,2.43,0,0,1,1.52-.54,1.86,1.86,0,0,1,1.89,1.73c.06.56.1,2,.08,2.89Z"></path><path class="a" d="M132,11.47c-1.28-.05-1.44,1-1.63,1,0,0,0-.63-.1-.94h-1.43a10.27,10.27,0,0,1,.1,1.7v5.62h1.53V14c0-.56.21-1.28,1.36-1.32Z"></path><path class="a" d="M139.67,12.57h1.1v-1h-1.1V9.63l-1.45.59v1.3h-.94v1h.94V17.3c0,.59,0,1.53,1.64,1.53h1v-1h-.66c-.24,0-.48-.08-.48-.8Z"></path><path class="a" d="M149.82,11.47c-1.13,0-1.27,1-1.46,1,0,0,0-.63-.1-.94h-1.42a10.27,10.27,0,0,1,.1,1.7v5.62h1.53V14c0-.56.21-1.28,1.36-1.32Z"></path><rect class="a" x="150.3" y="8.82" width="1.5" height="1.48"></rect><path class="a" d="M154.81,14.58h-.86c0-.27,0-.55,0-.85,0-1.16.55-1.24,1-1.24.63,0,1,.24,1,1.37,0,.12,0,.55,0,.72h-1.06v1h2.59a19.23,19.23,0,0,0-.06-2.26,2.14,2.14,0,0,0-2.44-1.86,2.08,2.08,0,0,0-2.37,1.86,21,21,0,0,0,0,3.89A2.15,2.15,0,0,0,154.91,19c1.5,0,2.28-.74,2.39-1.78,0-.26,0-.33,0-.61h-1.51c0,.5,0,.09,0,.27,0,.69-.16,1.09-.93,1.09s-.87-.55-.89-1.25c0-.38,0-.74,0-1.1h.83Z"></path><path class="a" d="M25.61,13a68.82,68.82,0,0,0-.32-7.6,4.68,4.68,0,0,0-4-4.06,72.77,72.77,0,0,0-8-.36,69.81,69.81,0,0,0-8,.36,4.67,4.67,0,0,0-4,4.06A66.66,66.66,0,0,0,1,13a63.42,63.42,0,0,0,.32,7.6,4.58,4.58,0,0,0,4,4.06,75.83,75.83,0,0,0,8,.33,78.85,78.85,0,0,0,8-.33,4.56,4.56,0,0,0,4-4.06c.21-2,.29-3.82.31-5.17S25.61,13.31,25.61,13ZM22.8,19.56c-.18,1.66-.81,2.52-2.78,2.71-3,.29-6.08.25-6.71.25s-3.68,0-6.71-.25c-1.93-.18-2.6-1-2.78-2.71A59.75,59.75,0,0,1,3.56,13a63.29,63.29,0,0,1,.26-6.54C4,4.89,4.56,4,6.61,3.77c3-.29,6.11-.25,6.71-.25s3.68,0,6.71.25c2,.19,2.61,1,2.78,2.71A63.73,63.73,0,0,1,23.06,13c0,.3,0,1.22,0,2.43S23,18.1,22.8,19.56Z"></path><path class="a" d="M15.52,5.21l.16,3.31h5a1.27,1.27,0,0,0,.37,0,100.64,100.64,0,0,1,0,10.08l-2.3.13c.09-1.43.11-2.72.11-3.5l-.84,0a.24.24,0,0,0-.13,0l-.11-3.13h-2l.3,8.92c-2.22.09-3.53.09-5.55,0l.32-8.92h-2l-.11,3.13a.24.24,0,0,0-.13,0l-.84,0c0,.78,0,2.07.11,3.5l-2.3-.13c-.09-3.31-.28-4.93,0-10.08a1.27,1.27,0,0,0,.37,0h5L11,6.68l-1.93.07a.89.89,0,0,0,.07-.27l.08-1.26a.67.67,0,0,0-.06-.28c2.24-.09,3.81-.14,6.37-.05C15.54,5.07,15.52,5.15,15.52,5.21Z"></path><path class="a" d="M162.47,13.72c0-.86.06-2.27-2.21-2.27-1.94,0-2.3,1.22-2.3,1.87a1.71,1.71,0,0,0,.76,1.54c.42.38,1.34,1,1.75,1.27a1.35,1.35,0,0,1,.64,1.07.73.73,0,0,1-.84.73c-.56,0-.9-.21-1-.77,0-.22,0-.39,0-.6h-1.45a2.65,2.65,0,0,0,.27,1.54,2.66,2.66,0,0,0,2.22.84,2.48,2.48,0,0,0,1.73-.55,1.76,1.76,0,0,0,.51-1.44,1.93,1.93,0,0,0-1-1.78c-.33-.25-1-.7-1.39-.94s-.75-.56-.75-1,.25-.73.8-.73.74.33.74.91c0,.08,0,.33,0,.33Z"></path><path class="a" d="M36.45,11.53c0-.91,0-3-2.9-3s-2.92,2.12-2.92,2.59c0,.66-.08,1.75,1.78,2.79l1.49.82A1.7,1.7,0,0,1,35,16.36a1.32,1.32,0,0,1-1.36,1.44,1.3,1.3,0,0,1-1.52-1.25,6,6,0,0,1-.06-.91H30.37a4,4,0,0,0,.74,2.54,3.22,3.22,0,0,0,2.4.84,3.28,3.28,0,0,0,2.38-.77,2.63,2.63,0,0,0,.73-2,3,3,0,0,0-1.77-2.82c-.5-.29-1-.55-1.58-.84A1.69,1.69,0,0,1,32.22,11a1.23,1.23,0,0,1,1.3-1.33A1.15,1.15,0,0,1,34.79,11c0,.12,0,.55,0,.55Z"></path><rect class="a" x="54.31" y="8.81" width="1.51" height="1.48"></rect></g></svg> 