<svg xmlns="http://www.w3.org/2000/svg" width="516" height="303" viewBox="0 0 516 303">
    <g style="mix-blend-mode:multiply" fill="#005d7b">
        <path d="M82.423 106.033L35.75 120.898l39.75-9.024 6.924-5.84zM29.153 123l-.153-.59L83.659 105l.13.236.211.177-.053.1h-.059l-8.19 6.869L29.153 123zM517.42 48.191l-75.066 58.968 74.734-16.674.333-42.294zM441.236 108l-.235-.514L518 47l-.338 43.963L441.235 108zM3.122 155.144L29.287 123.791 54.224 214.388 12.43 212.108 12.522 212.685 55 215 29.698 123.115 29.449 123.179 29.2 123 3 154.388z" transform="translate(-33 -26)"/>
        <path d="M46.616 166.5l8.254 45.913 20.174-98.387L46.616 166.5zM55.14 214h-.587L46 166.408l.047-.093L75.467 112l.533.185L55.14 214z" transform="translate(-33 -26)"/>
        <path d="M29.696 122.999l25.047 90.687L75.21 112.762l-45.515 10.237zM55.07 215h-.585L29 122.574l.298-.07L76 112 55.07 215zM189.977 142.717l13.35 2.431-16.964-9.725 3.614 7.294zM204.828 146l-15.246-2.801L185 134l20 11.468-.172.532zM267.954 174.368l77.277-5.878-29.665-93.918-47.612 99.796zM346 169.012L267 175l.22-.447L315.682 73 346 169.012z" transform="translate(-33 -26)"/>
        <path d="M341.63 86.46l3.867 82.79 62.383-17.033-66.25-65.757zm3.324 83.54v-.36L341 85l.531.524L409 152.508 344.954 170zM314.909 76.032l28.425 91.701-3.714-80.795-24.711-10.906zM343.452 170L314 75l26.167 11.535L344 169.89l-.548.11z" transform="translate(-33 -26)"/>
        <path d="M401.711 128.734l5.796 21.816 6.52-34.61-12.316 12.794zM407.863 152h-.624L401 128.551 415 114l-7.137 38z" transform="translate(-33 -26)"/>
        <path d="M342.452 86.08l65.609 64.742 6.3-35.449-71.909-29.293zM408.435 152L341 85.473l.317-.473L415 115.027 408.435 152z" transform="translate(-33 -26)"/>
        <path d="M462.672 97.68l-21.425 9.992-22.722 12.438 44.147-22.43zM402.273 129l-.273-.494 38.98-21.356L477.737 90l.262.51L402.273 129z" transform="translate(-33 -26)"/>
        <path d="M414.531 115.116l-10.912 12.466 34.696-20.182-23.784 7.716zM402.357 129l-.357-.46 12.209-13.944h.08L440.793 106v.042l.207.502v-.036.036L402.357 129zM478.494 90.535l12.177 10.81 25.875-10.226-38.052-.584zM490.526 102L477 90l40.896.627.104.514L490.526 102z" transform="translate(-33 -26)"/>
        <path d="M477.745 90.554l-34.253 16.332 71.964-15.72-37.711-.612zM441.185 108l-.185-.537L477.618 90h.069l40.261.658.052.577L441.185 108zM14.094 224.35L53.33 214.935 16.604 239.375 16.71 240 55 214.511 54.824 214.252 54.759 214 14 223.782z" transform="translate(-33 -26)"/>
        <path d="M12 212L12.092 212.588 52.972 214.876 16.507 240.359 16.604 241 54 214.87 53.839 214.611 53.851 214.341z" transform="translate(-33 -26)"/>
        <path d="M14.139 218.276L46.593 165.991 104.62 235.252 15.166 224.599 15.264 225.191 106 236 46.524 165 14 217.407z" transform="translate(-33 -26)"/>
        <path d="M14.138 218.876L46.168 166.591 54.341 213.555 14.865 223.423 14.957 224 55 213.986 46.472 165 14 218.002zM104.842 236.265l60.084 6.907-67.182-50.198 7.098 43.29zM167 244l-62.663-7.201L97 192.07l.412-.07.105.076L167 244z" transform="translate(-33 -26)"/>
        <path d="M47.353 168.165l56.747 67.852-6.959-42.257-49.788-25.595zM105 238l-59-70.562.35-.438 51.944 26.714-.574.098L105 238zM187.722 147.844l-20.661 89.637 15.16-47.077 5.501-42.56zM165.563 244l-.563-.157 23.443-101.715.056-.128.501.21h-.073.073l-6.25 48.31L165.564 244z" transform="translate(-33 -26)"/>
        <path d="M98.079 192.919l68.167 50.096 24.03-100.25-92.197 50.154zM166.608 244l-.356-.26L97 192.877 190.574 142l.088.168.338.145L166.608 244zM184.893 190.093l28.441.32-7.69-44.534-20.75 44.214zM214 191l-30-.337L205.883 144 214 191z" transform="translate(-33 -26)"/>
        <path d="M190.15 143.67l-6.312 45.452 21.282-42.766-14.97-2.686zM183.565 191l-.565-.155L189.644 143 206 145.932l-.172.338L183.565 191zM215.761 191.11l88.817 4.255-37.642-19.73-51.175 15.476zm90.09 4.89l-91.782-4.393-.069-.577L266.999 175 306 195.44l-.15.56z" transform="translate(-33 -26)"/>
        <path d="M213.685 190.256l52.39-15.925-60.308-29.305M213.226 191L205 144l62 30.12-.116.235.07.304L213.225 191zM305.653 196.216l46.57 5.111-7.869-31.07-38.701 25.96zM353 202l-49-5.38 40.313-27.035.33-.585.182.708L353 202z" transform="translate(-33 -26)"/>
        <path d="M267.061 175.46l38.192 19.875 38.18-25.641-76.372 5.765zM305.293 196L265 175.037 345 169l-.36.578L305.293 196zM406.197 153.92l-52.863 45.222 25.724-6.83 27.139-38.393zM352.267 200l-.267-.48L407.565 152l.435.367-28.577 40.43L352.267 200z" transform="translate(-33 -26)"/>
        <path d="M344.678 169.823l7.77 31.108 54.208-48.043-61.978 16.935zM352.112 202L344 169.409 407.733 152l.267.502L352.112 202z" transform="translate(-33 -26)"/>
        <path d="M379.736 192.754l22.68 9.384-.397-71.396-22.283 62.012zM403 203l-24-9.93L402.03 129l.584.092L403 203z" transform="translate(-33 -26)"/>
        <path d="M401.91 129.996l-21.639 60.893 27.105-39.219-5.466-21.674zM379.508 193l-.508-.253L402.002 128 408 151.78 379.508 193zM477.228 89.992l-73.562 111.525 71.947-36.134 1.615-75.39zM402 203l75.25-114.096v-.302l.162.047.432-.649v.782l.156.052-.161.249-1.643 76.653-.156.075L402 203z" transform="translate(-33 -26)"/>
        <path d="M402.578 128.55l.393 72.553 73.73-111.03-74.123 38.478zm-.18 74.45L402 128.21l.156-.086L477.521 89l.479.144-.208.317L402.399 203zM476.657 166.353l25.592 20.292-11.246-82.095-14.346 61.803zM503 188l-27-21.436 14.768-63.735.827-.829-.223.943L503 188z" transform="translate(-33 -26)"/>
        <path d="M478.167 91.316l-1.535 72.764 13.544-61.161-12.009-11.603zM476.564 167l-.564-.07L477.614 90l12.878 12.423.508-.531-.22.998L476.564 167zM15 231L15.157 231.966 78.871 294.212 27.608 307.431 27.701 308 80 294.51z" transform="translate(-33 -26)"/>
        <path d="M79.838 294.122l45.37 7.153-20.242-64.615-25.128 57.462zM126 302l-47-7.422L105.042 235 126 302z" transform="translate(-33 -26)"/>
        <path d="M15 226L15.093 226.595 105.153 237.338 79.973 294.991 15.841 231.202 15.998 232.176 80.159 296 106 236.854zM165.42 245.564l-37.795 54.694 22.869-18.688 14.927-36.006zm-39 56.436l-.42-.39L166.499 243l.501.274-16.028 38.651L126.421 302z" transform="translate(-33 -26)"/>
        <path d="M105.821 236.686l20.154 65.001 39.973-58.06-60.127-6.941zM125.773 303L105 236l62 7.169L125.773 303z" transform="translate(-33 -26)"/>
        <path d="M183.38 191.888l-32.069 88.004 33.122-47.091-1.054-40.913zM150.51 282l-.51-.266 33.38-91.416v-.196l.732-.122-.148.411L185 232.975l-.052.075L150.51 282z" transform="translate(-33 -26)"/>
        <path d="M178.483 207.405l-23.237 62.051 11.075-26.025 12.162-36.026zM150.547 282l-.547-.209 34.33-91.68.67-.111-.165.464-.27-.035.247.08-17.944 53.124L150.547 282zM185.948 233.225l54.006 12.943-25.89-53.743-28.116 40.8zM241 247l-56-13.421 28.838-41.826.174-.753.364.747L241 247z" transform="translate(-33 -26)"/>
        <path d="M184.572 190.588l1.005 41.588 27.514-41.267-28.52-.32zm.48 43.412L184 190l30 .344-.12.448L185.052 234zM239.77 246.35l20.268 32.492 44.779-82.66-65.048 50.167zM260.072 280L239 246.216l.21-.162 66.289-51.122L306 194v1.25l-.07.053L260.073 280z" transform="translate(-33 -26)"/>
        <path d="M214.939 191.616l25.754 54.492 64.265-50.176-90.02-4.316zM240.475 247L214 191l92 4.414v.409l-.114.092L240.476 247zM351.78 200.836l-90.8 77.753 109.19-50.715-18.39-27.038zM259.314 280l-.313-.476L351.874 200l.186.267L371 228.129l-.308.14L259.313 280z" transform="translate(-33 -26)"/>
        <path d="M305.12 196.62l-44.866 82.942 91.381-77.837-46.516-5.104zM259.448 281l-.449-.354L304.793 196 353 201.295l-.467.43L259.45 281zM364.716 213.673l7.29 13.665 8.092-32.915-15.382 19.25zm7.49 15.327L364 213.615 380.47 193l.53.244L372.205 229z" transform="translate(-33 -26)"/>
        <path d="M353.904 200.928l17.562 26.658 7.77-33.792-25.332 7.134zM371.719 229L353 200.603 380 193l-8.281 36z" transform="translate(-33 -26)"/>
        <path d="M365.688 214.025l90.858 8.223-53.805-18.555-37.053 10.332zM458.879 223l-94.827-8.523-.052-.587L402.885 203l.057.1L459 222.436l-.121.564z" transform="translate(-33 -26)"/>
        <path d="M378.794 193.698l-15.235 19.301 37.677-10.1-22.442-9.201zM362 214l16.612-21 23.52 9.654.112-.035.07.109.686.286-.44.114.27.43-.738-.304L362 214zM473.796 172.63l-26.485 65.362 11.61-15.09 14.875-50.272zM446.486 240l-.486-.29L475.463 167l.068.029H476v.081l-.034.07-16.543 55.972-.034.04L446.486 240z" transform="translate(-33 -26)"/>
        <path d="M403.482 201.73l55.053 18.544 16.517-54.17-71.57 35.625zM458.914 221l-.281-.091L402 201.826 476 165l-17.086 56zM501.456 186.669l-55.608 50.425 116.35-19.65-60.742-30.775zM444 238l57.357-52 .18.087L564 217.72 444 238z" transform="translate(-33 -26)"/>
        <path d="M476.27 165.935l-29.233 70.755 54.373-50.143-25.14-20.612zM446.464 238l-.464-.323L476.023 165l25.966 21.31-.167.249.178.185L446.464 238zM79.968 295.34l-28.76 59.5 47.018-20.821-18.258-38.68zM50 356l29.98-62L99 334.309l-.266.116L50 356z" transform="translate(-33 -26)"/>
        <path d="M80.739 294L29 307.414 29.093 307.978 80.113 294.754 51.041 354.229 35.38 346.296 35.496 347.004 51.308 355 80.907 294.443 81 294.265zM99.894 313.18l-.292 20.195 25.256-30.433-24.964 10.238zM99 335l.32-22.182L125.686 302l.13.287.185.16L99 335z" transform="translate(-33 -26)"/>
        <path d="M79.994 294.748l18.107 39.175 26.434-32.004-44.54-7.171zM97.964 335L79 294l47 7.565-.718.383L97.963 335z" transform="translate(-33 -26)"/>
        <path d="M98.85 312.91l45.139 3.48 5.217-33.245-50.357 29.765zM144.48 317L97 313.342 150 282l-.145.644L144.481 317z" transform="translate(-33 -26)"/>
        <path d="M146.26 282.937l-44.791 27.116 23.405-9.556 21.386-17.56zM98.254 312l-.254-.522L150 280l-.167.756-.081.07-24.618 20.193L98.254 312zM144.818 316.475l56.445 20.664-16.79-103.22-39.655 82.556zM202 338l-58-21.222L184.75 232 202 338z" transform="translate(-33 -26)"/>
        <path d="M149.93 282.883l-5.054 32.127 38.099-77.91-33.044 45.783zM144.55 317l-.549-.167 5.376-34.168.04-.052L184.505 234l.496.288h-.076l.07.04L144.55 317zM210.838 290.435l-7.797 43.908 35.326-85.558-27.529 41.65zM202.57 337l-.569-.162 8.27-46.617L239.504 246h.028l.467.255L202.57 337z" transform="translate(-33 -26)"/>
        <path d="M185.712 232.773l16.754 103.11 37.579-89.86-54.333-13.25zM202.223 338L185 232l56 13.662-.313.326L202.223 338z" transform="translate(-33 -26)"/>
        <path d="M211.95 290.33l96.99-1.723-49.5-9.003-47.49 10.726zm99.998-1.196L209.064 291l-.064-.598L259.429 279h.058L312 288.571l-.052.563z" transform="translate(-33 -26)"/>
        <path d="M239.721 247.085l-29.425 43.05 49.771-10.743-20.346-32.307zM209 291l30.739-45L261 279.75 209 291zM369.657 229.84l-55.274 58.059L359 256.826l10.656-26.987zM312.373 290l-.373-.437 58.294-61.225L371 228l-.27.675-11.258 28.523-.075.053L312.373 290z" transform="translate(-33 -26)"/>
        <path d="M260.889 278.379l51.189 9 57.426-59.235L260.89 278.38zM312.29 288h-.156L259 278.655 370.677 227l.12.27.203.19L312.291 288z" transform="translate(-33 -26)"/>
        <path d="M361.612 255.917l52.623 21.721-48.856-64.123-3.767 42.402zM416 279l-55-22.701L364.94 212 416 279z" transform="translate(-33 -26)"/>
        <path d="M363.402 214.044l-3.622 39.9 10.603-26.397-6.981-13.503zM359.582 256l-.582-.128 3.878-42.792-.041-.087.058-.082.088-.911.238.47.344-.47-.088.964L371 227.518 359.582 256zM459.906 222.394l-44.122 55.311 49.59-18.66-5.468-36.651zM414 279l46.265-58L466 259.412 414 279z" transform="translate(-33 -26)"/>
        <path d="M365.274 214.684l49.763 63.39 44.81-55.137-94.573-8.253zM415.026 279L364 214l97 8.46L415.026 279z" transform="translate(-33 -26)"/>
        <path d="M447.538 238.794l18.269 19.418 16.883-14.41-35.152-5.008zM465.76 259L446 238l38 5.414L465.76 259z" transform="translate(-33 -26)"/>
        <path d="M445.772 239.495l18.361 19.68-5.466-35.81-12.895 16.13zM465 261l-20-21.453L459.05 222l5.95 39zM485.535 242.925l50.842-7.034 25.564-16.706-76.406 23.74zm51.052-6.476L482.122 244l-.122-.58 81.714-25.385.047-.035h.105l.035.343.099.186-27.413 17.92z" transform="translate(-33 -26)"/>
        <path d="M446.873 238.38l34.22 5.027 76.694-24.122-110.914 19.094zM481.14 244h-.069L445 238.699v-.581L561.896 218h.035l.069.581L481.14 244zM98.806 313.269l-32.752 72.477 36.315-30.325-3.563-42.152zM65.452 387l-.452-.338L99.177 311l.093 1.108L103 355.66l-.122.1L65.452 387z" transform="translate(-33 -26)"/>
        <path d="M98.362 313.492L66.31 382.164l31.75-48.875.302-19.797zM64.526 386l-.526-.27L98.41 312l.59.121-.319 21.312-.047.07L64.526 386zM144.287 317.587l-40.904 37.448 68.188-23.329-27.284-14.12zM102.29 356l-.291-.468 42.041-38.487.189.192.137-.237L173 331.813 102.291 356z" transform="translate(-33 -26)"/>
        <path d="M99.642 312.614l3.591 42.135 41.64-38.638-45.231-3.497zm3.1 43.386L99 312l46.665 3.665.335.19-.283.267L102.742 356zM173.51 331.455l24.667 4.988-49.086-17.48 24.42 12.492zM203 338l-29.72-6.027L145 317.512l.23-.512 56.888 20.241.882.759zM209.708 291.316l7.558 83.86 63.622-27.219-71.18-56.641zm7.05 84.684L209 290l73 58.106-.439.194-64.804 27.7z" transform="translate(-33 -26)"/>
        <path d="M201.618 336.528l15.616 37.465-7.399-81.772-8.217 44.307zM217.424 376L201 336.586 209.634 290h.593L218 375.838l-.576.162zM311.874 289.923l-30.733 58.161 39.195-10.866-8.462-47.295zM280 349l31.705-59.998-.175-1.002.426.518.192-.357.134.755.075.086-.04.08L321 337.639l-.25.07L280 349z" transform="translate(-33 -26)"/>
        <path d="M210.58 290.35l69.953 57.734 30.65-59.512-100.602 1.778zM280.712 349l-.27-.227L209 289.808 311.793 288l.207.257-.086.175L280.71 349zM359.781 257.347l-37.77 79.852 39.397-7.98-1.627-71.872zM321 338l38.787-82 .546.116 1.667 73.55L321 338z" transform="translate(-33 -26)"/>
        <path d="M312.65 288.546l8.51 47.578 38.365-79.428-46.875 31.85zM320.896 338L312 288.286l.158-.105L361 255l-40.104 83zM362.061 329.612l59.266 21.51-7.608-72.157-51.658 50.647zM422 352l-61-22.161.325-.326 52.481-51.45.389-.063.04.308L422 352z" transform="translate(-33 -26)"/>
        <path d="M359.603 256.86l1.67 71.8 52.122-50.275-53.792-21.524zm1.113 73.14L359 256l56 22.403-.937.15L360.716 330zM425.481 290.13l-3.797 60.248 42.3-89.212-38.503 28.964zM421.555 352l-.555-.139 3.914-62.026.106-.086L464.568 260l.432.34L421.555 352z" transform="translate(-33 -26)"/>
        <path d="M414.635 277.807l7.626 72.057 42.614-90.828-50.24 18.77zM421.9 352L414 277.429 466 258l-44.1 94z" transform="translate(-33 -26)"/>
        <path d="M427.046 289.171l81.023 42.688-25.515-86.983-55.508 44.295zM509 333l-83-43.736.345-.266L482.738 244l.236.23v.07L509 333z" transform="translate(-33 -26)"/>
        <path d="M473.814 252.286l-26.232 20.291 18.16-13.438 8.072-6.853zM426.358 289l-.358-.44L483.589 244l.411.382-.235.211-17.648 14.985L426.358 289zM536.279 239.786l-27.168 92.48 23.474-20.288 3.694-72.192zM508 334l28.465-96.913L537 237v.353l-3.834 74.914L508 334z" transform="translate(-33 -26)"/>
        <path d="M482.752 244.991l25.784 86.954 27.782-94.327-53.566 7.373zM508.536 334L482 244.506 536.68 237l.046.283.274.08L508.536 334zM426.7 291.162l10.91 76.803 32.565-24.645-43.475-52.158zM437.183 369L426 290.224l.256-.046.239-.178L471 343.378 437.183 369zM421.557 350.385l13.646 15.832-10.164-74.588-3.482 58.756zM436 368l-15-17.408v-.115L424.695 288l.486.707v.075L436 368z" transform="translate(-33 -26)"/>
        <path d="M427.389 289.224l43.618 53.111 36.283-10.003-79.901-43.108zM470.829 343l-.12-.147L426 288.447l.356-.447L509 332.532l-.844.147L470.83 343zM520.596 335.366l10.031 31.836.82-54.813-10.85 22.977zm10.529 33.542l-.547.092L520 335.32 531.486 311l.514.127-.875 57.78z" transform="translate(-33 -26)"/>
        <path d="M508.748 332.506l21.818 35.56.854-55.795-22.672 20.235zM531.073 370L508 332.392 532 311l-.927 59zM505.964 29.858l-39.741 58.99 64.772-38.6-25.03-20.39zM465.394 90l-.394-.397L505.817 29l.26.207L532 50.335 465.394 90z" transform="translate(-33 -26)"/>
        <path d="M583.463 32.983l-46.71 14.914 39.78-9.05 6.93-5.864zM530.153 50l-.153-.563L584.676 32l.153.284.171.154-.1.095-8.19 6.889L530.153 50z" transform="translate(-33 -26)"/>
        <path d="M506.688 29.64l24.3 19.73 51.863-16.054-76.163-3.675zM530.862 50L505 29l80 3.877-.363.495h-.092L530.862 50zM453.632 122.865l6.139 13.131 6.295-43.61-12.434 30.48zm6.44 15.135L453 122.9 466.42 90l.58.151L460.073 138z" transform="translate(-33 -26)"/>
        <path d="M460.168 135.136l97.055 5.235-25.166-90.557-71.889 85.322zM558 141l-99-5.356L531.963 49l.263.173.251-.063L558 141z" transform="translate(-33 -26)"/>
        <path d="M466.494 89.257l-6.621 45.768L530.429 50.4l-63.935 38.857zM459 137l6.953-48.069.122-.07L531.593 49l.267.308.14.075-.14-.07.11.117L459 137zM547.617 93.148l8.189 46.23 19.996-99.11-28.185 52.88zM556.073 141h-.581L547 93.055l.047-.087 29.15-54.677.035-.163L577 38l-.256.483L556.074 141z" transform="translate(-33 -26)"/>
        <path d="M530.749 48.999l25.04 90.687 20.468-100.924-45.508 10.237zM556.123 141h-.585L530 48.569l.304-.064L577 38l-.082.436L556.123 141z" transform="translate(-33 -26)"/>
        <path d="M548.154 93.94l50.261 26.255 42.528-86.005-92.79 59.75zM598.689 121L547 93.998 641.76 33l.24.39-.074.147L598.689 121z" transform="translate(-33 -26)"/>
        <path d="M577.105 39.228l-28.57 53.136L642.36 33.76l-65.256 5.468zM547 94l29.728-55.308h.168l66.517-5.571.192-.121.395.645-.395.035L547 94zM459.201 136.134l24.192 53.354-.084-43.084-24.108-10.27zM483.441 191L458 135l25.91 11.049v.192l.09 44.66-.559.099z" transform="translate(-33 -26)"/>
        <path d="M511.21 152.52L484.43 189.6l69.958-47.707-43.177 10.628zM483.392 191l-.392-.403 27.87-38.595h.098L555.764 141l.236.507L483.392 191z" transform="translate(-33 -26)"/>
        <path d="M459.896 135.627l23.681 54.502 71.384-49.25-95.065-5.252zM483.325 191L459 135h.465l96.374 5.32v.262l.161.267L483.325 191z" transform="translate(-33 -26)"/>
        <path d="M511.982 152.05l94.63 11.202-58.372-69.284-36.258 58.082zM608 164l-97-11.469L548.176 93l.267.302L608 164z" transform="translate(-33 -26)"/>
        <path d="M547.267 93.614l-35.054 58.467 43.135-11.024-8.08-47.443zM511 153l36.568-61L556 141.469 511 153zM455.888 241.348l27.434 4.96.109-55.067-27.543 50.107zM483.892 247L455 241.762 484 189l-.108 58z" transform="translate(-33 -26)"/>
        <path d="M511.594 152.84l-27.767 93.343 97.016-25.195-69.249-68.148zM483 247l28.218-94.948.335-.052.099.104L582 221.294 483 247z" transform="translate(-33 -26)"/>
        <path d="M483.695 191.02l-.104 53.87 27.013-90.976-26.909 37.105zM483.58 247l-.579-.08.11-56.085.046-.07 27.94-38.494.035-.127L512 152l-.377.53L483.58 247z" transform="translate(-33 -26)"/>
        <path d="M512.603 152.774l69.354 68.221 25.201-57.067-94.555-11.154zM582.143 222l-.302-.294L511 152l97 11.45L582.143 222zM436.063 247.57l112.924 33.035-65.52-33.035h-47.404zM551.78 282L434 247.57l.086-.57h49.45v.182l.133-.148L552 281.482l-.219.518z" transform="translate(-33 -26)"/>
        <path d="M484.617 246.88l67.547 34.354 28.924-59.497-96.471 25.143zM552.412 282L483 246.707 581.723 221l.277.248-.098.195L552.412 282z" transform="translate(-33 -26)"/>
        <path d="M553.136 280.788l-41.627 30.663 40.315-29.052 1.312-1.61zM467.34 344l-.339-.466L554.609 279l.391.403-2.876 3.519h-.046L467.339 344z" transform="translate(-33 -26)"/>
        <path d="M552.622 282.339l-60.006 65.707 20.818-4.597 39.188-61.11zM491 349l63.878-70 .122.695-.064.092-41.136 64.185h-.128L491 349z" transform="translate(-33 -26)"/>
        <path d="M492.864 348.582l89.287 16.669-16.516-50.461-72.77 33.792zM583 366l-92-17.187L565.985 314l.103.305L583 366z" transform="translate(-33 -26)"/>
        <path d="M554.864 280.12l-60.511 67.772 72.048-33.655-11.537-34.117zM493.33 349l-.331-.45L555.098 279 567 314.294l-.228.087.08.265L493.332 349zM75.086 109.034c-1.36.228-2.278 1.514-2.052 2.875.226 1.36 1.51 2.28 2.87 2.058 1.36-.223 2.284-1.506 2.064-2.867-.108-.656-.473-1.243-1.013-1.63-.54-.388-1.213-.545-1.87-.436M82.912 107.966c1.36-.228 2.28-1.515 2.054-2.875-.226-1.361-1.512-2.282-2.873-2.057-1.36.224-2.283 1.509-2.06 2.87.108.656.472 1.242 1.012 1.629s1.212.542 1.867.433M517.92 49.965c1.358-.231 2.273-1.519 2.045-2.878-.228-1.36-1.513-2.278-2.872-2.053-1.36.224-2.281 1.507-2.06 2.868.108.657.473 1.244 1.015 1.631.542.387 1.215.543 1.872.432M205.668 148.946c2.173-.369 3.64-2.427 3.277-4.602-.362-2.176-2.416-3.648-4.592-3.29-2.176.356-3.652 2.407-3.301 4.584.172 1.052.756 1.991 1.622 2.612.866.62 1.943.87 2.994.696M185.92 136.966c1.359-.232 2.273-1.52 2.045-2.88-.228-1.359-1.513-2.277-2.873-2.052-1.36.225-2.28 1.508-2.06 2.868.23 1.367 1.522 2.29 2.889 2.064M314.919 75.966c1.359-.231 2.274-1.519 2.046-2.879-.228-1.36-1.513-2.278-2.873-2.053-1.36.225-2.28 1.508-2.06 2.87.23 1.365 1.52 2.288 2.887 2.062M344.503 170.959c1.63-.278 2.728-1.822 2.455-3.454-.273-1.631-1.814-2.734-3.446-2.465-1.631.27-2.738 1.809-2.473 3.441.13.789.568 1.493 1.218 1.958.65.465 1.458.652 2.246.52M343.95 85.389c-.247-1.601-1.436-2.895-3.01-3.276-1.574-.382-3.223.224-4.175 1.535-.953 1.31-1.021 3.066-.173 4.446.848 1.38 2.445 2.113 4.044 1.855 2.174-.344 3.658-2.385 3.315-4.56M414.503 112.04c-1.631.274-2.733 1.818-2.462 3.45.271 1.633 1.813 2.738 3.445 2.47 1.633-.268 2.74-1.808 2.475-3.442-.272-1.638-1.82-2.747-3.458-2.478M440.502 105.04c-1.632.275-2.732 1.82-2.46 3.452.27 1.632 1.812 2.736 3.445 2.468 1.632-.269 2.74-1.809 2.474-3.442-.272-1.639-1.82-2.748-3.46-2.477M514.056 92.192c.28 1.8 1.62 3.255 3.39 3.682 1.772.428 3.627-.256 4.697-1.732 1.07-1.475 1.144-3.45.188-5.002-.955-1.552-2.753-2.374-4.552-2.082-1.174.187-2.227.832-2.925 1.795s-.985 2.164-.798 3.339M53.081 212.034c-1.358.23-2.273 1.517-2.047 2.876.227 1.36 1.51 2.28 2.87 2.057 1.359-.223 2.282-1.504 2.064-2.864-.108-.658-.473-1.245-1.015-1.633-.541-.388-1.215-.545-1.872-.436M47.963 166.543c-.185-1.202-1.077-2.172-2.258-2.459-1.181-.286-2.418.17-3.132 1.153-.715.983-.765 2.3-.128 3.336.637 1.035 1.836 1.583 3.035 1.388 1.629-.259 2.74-1.789 2.483-3.418M98.665 196.947c2.175-.367 3.642-2.426 3.28-4.603-.362-2.176-2.418-3.649-4.595-3.29-2.176.358-3.652 2.412-3.298 4.59.368 2.183 2.429 3.659 4.613 3.303M187.95 189.391c-.246-1.602-1.436-2.897-3.01-3.279-1.576-.381-3.226.227-4.178 1.54-.952 1.311-1.017 3.069-.166 4.449.851 1.38 2.45 2.109 4.05 1.846 2.17-.347 3.648-2.385 3.304-4.556M188.491 140.042c-1.63.28-2.726 1.83-2.448 3.462.279 1.632 1.826 2.73 3.458 2.453 1.632-.276 2.731-1.823 2.457-3.456-.282-1.634-1.831-2.734-3.467-2.459M265.31 171.058c-2.169.38-3.623 2.443-3.252 4.614.37 2.172 2.427 3.635 4.6 3.273 2.172-.362 3.643-2.413 3.29-4.588-.175-1.054-.762-1.995-1.633-2.614-.87-.62-1.952-.866-3.004-.685M352.499 197.04c-1.63.277-2.73 1.822-2.457 3.454.272 1.632 1.815 2.735 3.447 2.465 1.632-.27 2.738-1.81 2.471-3.443-.273-1.639-1.822-2.746-3.461-2.475M402.252 132.939c2.446-.415 4.095-2.732 3.686-5.18-.41-2.448-2.722-4.102-5.17-3.698-2.448.404-4.107 2.713-3.709 5.163.41 2.46 2.734 4.122 5.193 3.715M407.33 148.055c-2.173.369-3.638 2.428-3.275 4.604.364 2.175 2.42 3.646 4.595 3.287 2.176-.358 3.65-2.41 3.298-4.588-.174-1.05-.758-1.99-1.624-2.61-.866-.619-1.943-.869-2.993-.693M379.493 190.042c-1.63.28-2.725 1.824-2.45 3.455.273 1.63 1.815 2.732 3.445 2.463 1.631-.27 2.737-1.808 2.473-3.44-.13-.79-.57-1.494-1.22-1.96-.65-.464-1.46-.65-2.248-.518M477.488 92.961c1.198-.197 2.158-1.097 2.433-2.279.276-1.182-.187-2.413-1.174-3.12-.986-.707-2.3-.75-3.331-.11-1.03.641-1.573 1.84-1.376 3.037.276 1.632 1.815 2.735 3.448 2.472M403.475 205.962c1.201-.193 2.167-1.092 2.445-2.276.279-1.184-.186-2.419-1.175-3.126-.99-.708-2.308-.748-3.339-.102-1.03.647-1.569 1.851-1.363 3.05.279 1.62 1.81 2.714 3.432 2.454M492.254 105.938c2.446-.416 4.094-2.734 3.683-5.181-.41-2.448-2.724-4.101-5.171-3.696-2.448.405-4.106 2.716-3.707 5.165.41 2.46 2.736 4.121 5.195 3.712M108.947 236.379c-.252-1.6-1.443-2.891-3.018-3.269-1.574-.377-3.22.233-4.17 1.545-.95 1.313-1.013 3.068-.163 4.447.851 1.378 2.449 2.107 4.047 1.845 1.046-.162 1.984-.736 2.604-1.594.62-.858.873-1.93.7-2.974M216.962 190.536c-.188-1.2-1.08-2.168-2.26-2.453-1.181-.284-2.417.172-3.13 1.155-.713.982-.764 2.298-.128 3.333.636 1.035 1.833 1.584 3.032 1.39.784-.123 1.487-.553 1.954-1.196.466-.643.658-1.445.532-2.23M241.96 246.516c-.266-1.631-1.802-2.739-3.434-2.478-1.631.261-2.745 1.793-2.49 3.425.256 1.633 1.783 2.752 3.417 2.502.792-.12 1.503-.553 1.974-1.201.47-.648.663-1.458.534-2.248M305.512 193.053c-1.197.197-2.158 1.094-2.434 2.274-.275 1.18.19 2.41 1.177 3.114.987.705 2.303.747 3.333.105 1.03-.64 1.571-1.838 1.37-3.033-.272-1.635-1.82-2.741-3.458-2.473M502.5 190.959c1.631-.276 2.731-1.82 2.459-3.452-.273-1.632-1.815-2.736-3.447-2.467-1.632.27-2.738 1.81-2.473 3.443.13.788.568 1.491 1.217 1.956.65.464 1.457.651 2.244.52M445.494 235.043c-1.63.28-2.726 1.824-2.452 3.454.274 1.63 1.815 2.732 3.446 2.463 1.631-.27 2.737-1.807 2.473-3.44-.128-.79-.566-1.496-1.217-1.96-.651-.466-1.462-.652-2.25-.517M480.951 165.386c-.248-1.6-1.438-2.893-3.012-3.274-1.574-.38-3.223.226-4.175 1.536s-1.02 3.066-.172 4.446c.848 1.38 2.445 2.113 4.044 1.855 2.173-.347 3.656-2.388 3.315-4.563M78.5 291.04c-1.63.275-2.73 1.819-2.459 3.451.272 1.633 1.813 2.737 3.445 2.469 1.632-.268 2.74-1.807 2.475-3.44-.277-1.638-1.822-2.746-3.46-2.48M124.33 298.054c-2.174.37-3.64 2.43-3.274 4.606.365 2.176 2.422 3.646 4.597 3.286 2.176-.36 3.65-2.416 3.294-4.593-.367-2.184-2.432-3.66-4.617-3.299M149.5 279.041c-1.632.276-2.731 1.821-2.458 3.453.272 1.632 1.815 2.735 3.447 2.465 1.632-.27 2.738-1.81 2.471-3.443-.13-.787-.568-1.49-1.217-1.955-.65-.465-1.456-.652-2.244-.52M183.737 229.064c-2.447.421-4.09 2.745-3.672 5.193.418 2.447 2.739 4.094 5.187 3.679 2.448-.415 4.097-2.734 3.685-5.183-.42-2.454-2.746-4.104-5.2-3.689M259.918 281.966c1.359-.23 2.275-1.518 2.047-2.877-.227-1.36-1.511-2.28-2.87-2.055-1.36.223-2.283 1.506-2.062 2.867.108.657.473 1.244 1.014 1.631s1.215.543 1.871.434M360.493 253.041c-1.63.28-2.725 1.825-2.45 3.456.274 1.631 1.816 2.732 3.447 2.462s2.736-1.81 2.47-3.442c-.13-.788-.57-1.492-1.22-1.956-.65-.465-1.458-.652-2.247-.52M375.95 227.381c-.251-1.6-1.442-2.891-3.016-3.27-1.575-.379-3.222.23-4.173 1.541-.95 1.312-1.016 3.067-.167 4.446.85 1.38 2.447 2.11 4.045 1.85 1.046-.165 1.982-.739 2.603-1.596.621-.857.876-1.926.707-2.97M368.95 212.379c-.252-1.6-1.443-2.89-3.018-3.268-1.575-.378-3.222.23-4.172 1.543-.95 1.311-1.015 3.066-.165 4.445.85 1.379 2.447 2.109 4.045 1.85 1.045-.167 1.981-.742 2.602-1.6.62-.857.875-1.925.708-2.97M458.33 218.055c-2.175.37-3.64 2.432-3.274 4.608.366 2.176 2.425 3.645 4.601 3.282 2.177-.363 3.648-2.42 3.289-4.597-.367-2.183-2.433-3.657-4.616-3.293M97.33 309.054c-2.174.37-3.639 2.43-3.274 4.606.364 2.176 2.42 3.646 4.596 3.286 2.176-.36 3.65-2.414 3.295-4.591-.366-2.185-2.431-3.662-4.616-3.3M143.513 314.04c-1.634.269-2.741 1.811-2.473 3.446.268 1.634 1.81 2.742 3.444 2.474 1.635-.267 2.743-1.809 2.476-3.444-.27-1.635-1.812-2.743-3.447-2.477M172.523 328.041c-1.199.193-2.163 1.09-2.442 2.27-.28 1.18.18 2.413 1.165 3.123.985.71 2.3.756 3.333.117 1.032-.638 1.577-1.836 1.382-3.033-.128-.788-.565-1.491-1.213-1.956-.649-.465-1.456-.652-2.243-.52M209.918 292.966c1.359-.23 2.275-1.518 2.047-2.878-.227-1.36-1.512-2.279-2.872-2.054-1.36.224-2.281 1.507-2.06 2.868.228 1.366 1.519 2.29 2.885 2.064M312.5 290.96c1.632-.277 2.731-1.821 2.458-3.454-.272-1.632-1.814-2.735-3.446-2.466-1.632.27-2.738 1.81-2.473 3.443.276 1.639 1.823 2.746 3.462 2.477M414.514 279.958c1.631-.284 2.724-1.837 2.442-3.469-.283-1.632-1.834-2.726-3.465-2.445-1.632.281-2.727 1.832-2.447 3.464.289 1.631 1.838 2.724 3.47 2.45M362.497 331.96c1.631-.273 2.733-1.817 2.462-3.45-.271-1.633-1.813-2.738-3.445-2.47-1.633.268-2.74 1.809-2.475 3.443.276 1.636 1.82 2.743 3.458 2.478M536.49 234.043c-1.629.281-2.723 1.827-2.448 3.456.276 1.63 1.817 2.73 3.447 2.46 1.63-.27 2.736-1.807 2.472-3.438-.13-.79-.568-1.497-1.22-1.962-.652-.465-1.462-.65-2.251-.516M424.331 285.056c-2.175.37-3.64 2.43-3.275 4.605.365 2.176 2.422 3.646 4.599 3.284 2.176-.36 3.649-2.416 3.292-4.593-.173-1.05-.757-1.989-1.623-2.607-.866-.619-1.943-.867-2.993-.689" transform="translate(-33 -26)"/>
        <path d="M532.912 313.966c1.36-.228 2.28-1.515 2.054-2.875-.226-1.361-1.512-2.282-2.873-2.057-1.36.224-2.283 1.509-2.06 2.87.108.656.472 1.242 1.012 1.629s1.212.542 1.867.433M505.921 30.966c1.358-.232 2.272-1.52 2.044-2.878-.227-1.36-1.511-2.278-2.87-2.055-1.36.224-2.282 1.505-2.063 2.866.109.657.474 1.244 1.016 1.632.542.388 1.216.544 1.873.435M456.037 137.46c.186 1.201 1.08 2.171 2.26 2.456 1.183.285 2.42-.171 3.133-1.156.713-.984.761-2.302.122-3.337-.638-1.034-1.838-1.58-3.038-1.383-1.627.262-2.735 1.792-2.477 3.42M455.964 120.543c-.186-1.201-1.077-2.172-2.258-2.458-1.181-.287-2.418.168-3.133 1.151-.714.983-.765 2.3-.128 3.336.636 1.035 1.835 1.584 3.034 1.39 1.628-.261 2.74-1.79 2.485-3.42M467.497 92.959c1.631-.274 2.733-1.818 2.462-3.45-.271-1.633-1.813-2.737-3.445-2.469-1.633.268-2.74 1.808-2.475 3.441.128.788.565 1.493 1.214 1.958.649.465 1.456.652 2.244.52M549.519 96.953c1.626-.286 2.716-1.832 2.438-3.46-.279-1.627-1.821-2.723-3.45-2.452-1.63.272-2.732 1.809-2.468 3.439.13.789.57 1.493 1.22 1.958.65.466 1.46.653 2.248.52M532.494 52.962c1.632-.273 2.735-1.816 2.466-3.449-.27-1.633-1.81-2.74-3.443-2.473-1.632.266-2.741 1.805-2.478 3.439.275 1.636 1.817 2.744 3.455 2.483M484.5 149.96c1.63-.275 2.731-1.82 2.459-3.453-.273-1.632-1.815-2.736-3.447-2.467-1.633.27-2.739 1.81-2.472 3.444.277 1.637 1.822 2.743 3.46 2.477M484.58 242.718c-.544-1.406-2.074-2.085-3.418-1.518-1.345.568-1.995 2.168-1.452 3.574-.598.961-.83 2.122-.651 3.253.351 2.335 2.304 4.034 4.563 3.971 2.259-.063 4.122-1.869 4.354-4.22.232-2.35-1.24-4.516-3.44-5.06M454.746 243.98c.817-.135 1.369-.907 1.234-1.724-.136-.817-.907-1.37-1.724-1.236-.817.135-1.37.906-1.236 1.724.139.816.909 1.368 1.726 1.237M511.336 148.055c-2.176.366-3.644 2.425-3.281 4.602.363 2.176 2.42 3.648 4.596 3.29 2.177-.36 3.652-2.414 3.296-4.592-.173-1.05-.756-1.988-1.621-2.607-.865-.619-1.94-.868-2.99-.693M486.97 190.113c-.158-1-.902-1.808-1.887-2.044s-2.014.145-2.608.965c-.594.82-.634 1.918-.102 2.78.532.86 1.53 1.317 2.53 1.153 1.356-.222 2.28-1.497 2.066-2.854M432.494 244.04c-1.63.28-2.726 1.825-2.452 3.456.274 1.632 1.816 2.733 3.448 2.463 1.63-.27 2.736-1.81 2.47-3.442-.277-1.64-1.826-2.746-3.466-2.476M551.335 276.056c-2.176.367-3.644 2.428-3.28 4.605.365 2.177 2.425 3.647 4.602 3.284 2.177-.362 3.649-2.42 3.289-4.598-.174-1.049-.757-1.985-1.623-2.603-.865-.617-1.94-.865-2.988-.688" transform="translate(-33 -26)"/>
    </g>
</svg>
